<?xml version="1.0" encoding="UTF-8"?><svg xmlns="http://www.w3.org/2000/svg" viewBox="0 0 500 500"><defs><style>.cls-1{fill:#012c17;}.cls-2{fill:#fff;}.cls-3{fill:#76b82a;}</style></defs><g id="donker_groen"><path class="cls-1" d="m484.68,178.83c23.26,59.73,4.86,149.56-32.8,200.9-19.75,26.93-46.97,47.17-75.75,63.3-40.14,22.5-84.45,37.81-130.02,41.25s-92.42-5.38-132.34-28.28C54.39,421.92,13.36,356.54,6.23,286.87c-2.33-22.81-1.25-45.99,3.19-68.47C25.7,136.14,88.47,67.3,164.82,38.02,241.17,8.74,338.29,1.09,402.31,53c53.18,43.12,67.6,87.93,82.36,125.83Z"/><circle class="cls-3" cx="231.5" cy="273.5" r="40"/><path class="cls-3" d="m108.88,59.76c61.87-33.33,135.49-43.23,203.68-27.38,25.46,5.92,50.33,15.39,72.17,30.03,39.31,26.34,67.12,68.77,80.12,114.96,13.01,46.19,11.82,95.86.82,142.6-6.87,29.21-17.73,57.87-35.55,81.75-39.65,53.11-108.98,75.43-174.3,74.46-47.13-.7-95.28-12.56-133.14-41.29-53.05-40.25-79.69-109.26-83.39-176.72-2-36.46,1.94-73.26,11.62-108.41,9.71-35.25,26.45-68.01,56.1-88.53"/></g><g id="Iconen"><path class="cls-2" d="m202.27,453.07c-24.92-7.97-44.32-18.47-66.77-31.89-18.23-10.9-35.98-24.08-46.44-42.57-1.63-2.89-2.22-7.81,1.05-8.38,1.16-.21,2.31.36,3.33.96,8.2,4.79,14.18,12.5,20.59,19.51,24.63,26.96,57.27,45,89.29,62.56"/><path class="cls-2" d="m249.48,213.68c5.97,0,12.04.73,18.1,2.25,39.73,9.96,63.87,50.25,53.9,89.99l69.51,30.32c.25.1.49.21.73.32,7.75,3.66,11.07,12.91,7.41,20.66-2.65,5.62-8.23,8.91-14.05,8.91-2.22,0-4.47-.48-6.61-1.49l-70.66-30.88c-14.26,18.12-35.87,28.29-58.28,28.29-6,0-12.06-.73-18.05-2.23-39.74-9.96-63.87-50.25-53.9-89.98,8.44-33.68,38.68-56.15,71.89-56.15m.04,122.15c5.76,0,11.62-1.05,17.32-3.26.02,0,.02,0,.03-.01,24.62-9.61,36.8-37.35,27.19-61.97-7.38-18.89-25.44-30.45-44.57-30.45-5.76,0-11.62,1.05-17.31,3.26-24.63,9.57-36.83,37.29-27.26,61.91,7.36,18.93,25.44,30.51,44.6,30.51"/><path class="cls-2" d="m187.22,145.85h70.6c4.87,0,8.82-3.95,8.82-8.82v-17.65c0-4.87-3.95-8.82-8.82-8.82h-10.33c-4.85-13.79-19.97-21.04-33.76-16.19-7.57,2.66-13.53,8.62-16.19,16.19h-10.33c-4.87,0-8.82,3.95-8.82,8.82v17.65c0,4.87,3.95,8.82,8.82,8.82Z"/><g id="surface1"><path class="cls-2" d="m172.03,333.7c-12.24-20.43-15.79-44.41-10-67.51,4.93-19.67,16.02-36.6,32.06-48.94,15.55-11.97,34.86-18.56,54.38-18.56,7.3,0,14.61.91,21.75,2.7,19.94,5,37.15,16.45,49.37,32.63v-88.15c0-14.62-11.85-26.47-26.47-26.47h-8.82v17.65c0,14.62-11.85,26.47-26.47,26.47h-70.6c-14.62,0-26.47-11.85-26.47-26.47v-17.65h-8.82c-14.62,0-26.47,11.85-26.47,26.47v167.67c0,14.62,11.85,26.47,26.47,26.47h24.28c-1.46-2.04-2.86-4.13-4.17-6.3Z"/></g><path class="cls-2" d="m280.44,276.35c-2.9-7.41-8.2-13.28-14.82-16.89.29.62.57,1.25.82,1.89,3.19,8.17,3,17.09-.52,25.13-3.52,8.03-9.96,14.2-18.12,17.4h-.03c-3.83,1.5-7.83,2.26-11.89,2.26-5.68,0-11.06-1.44-15.78-4.02,5.38,11.61,16.84,19.01,29.78,19.01,4.06,0,8.05-.75,11.89-2.24h.03c8.16-3.21,14.6-9.39,18.12-17.41,3.53-8.03,3.71-16.96.52-25.13Z"/></g></svg>