<?xml version="1.0" encoding="UTF-8"?><svg xmlns="http://www.w3.org/2000/svg" viewBox="0 0 500 500"><defs><style>.cls-1{fill:#012c17;}.cls-2{fill:#fff;}.cls-3{fill:#76b82a;}</style></defs><g id="donker_groen"><path class="cls-1" d="m484.68,178.83c23.26,59.73,4.86,149.56-32.8,200.9-19.75,26.93-46.97,47.17-75.75,63.3-40.14,22.5-84.45,37.81-130.02,41.25-45.57,3.43-92.42-5.38-132.34-28.28C54.39,421.92,13.36,356.54,6.23,286.87c-2.33-22.81-1.25-45.99,3.19-68.47C25.7,136.14,88.47,67.3,164.82,38.02,241.17,8.74,338.29,1.09,402.31,53c53.18,43.12,67.6,87.93,82.36,125.83Z"/><path class="cls-3" d="m108.88,59.76c61.87-33.33,135.49-43.23,203.68-27.38,25.46,5.92,50.33,15.39,72.17,30.03,39.31,26.34,67.12,68.77,80.12,114.96,13.01,46.19,11.82,95.86.82,142.6-6.87,29.21-17.73,57.87-35.55,81.75-39.65,53.11-108.98,75.43-174.3,74.46-47.13-.7-95.28-12.56-133.14-41.29-53.05-40.25-79.69-109.26-83.39-176.72-2-36.46,1.94-73.26,11.62-108.41,9.71-35.25,26.45-68.01,56.1-88.53"/></g><g id="Iconen"><path class="cls-2" d="m253.9,153.11c9.64-9.39,9.82-24.81.44-34.41-9.39-9.63-24.78-9.84-34.39-.45-9.63,9.39-9.84,24.78-.44,34.39,9.35,9.64,24.78,9.83,34.39.48Z"/><path class="cls-2" d="m224.79,349.26c-9.61,9.36-9.82,24.76-.44,34.38,9.35,9.64,24.78,9.84,34.41.47,9.61-9.39,9.81-24.81.42-34.41-9.39-9.64-24.76-9.83-34.39-.44Z"/><path class="cls-2" d="m264.87,227.62l-35.18-10.08-5.31-17.21c7.07-8.14,6.94-20.43-.72-28.3l-6.24-6.4c-2.8-2.89-7.57-5.31-9.86-5.89l-51.56-13.23c-4.7-1.22-9.7.27-12.99,3.86l-31.03,33.81c-4.92,5.37-4.56,13.71.79,18.63,2.53,2.32,5.72,3.48,8.91,3.48,3.57,0,7.11-1.45,9.72-4.27l25.68-28.01,17.19,4.41-36.71,35.77c-5.64,4.82-10.73,12.48-7.5,20.18l14.51,34.51-60.03,31.13c-7.76,4.02-10.79,13.58-6.77,21.32,4.01,7.7,13.51,10.78,21.32,6.76l72.99-37.84c2.09-1.09,3.73-2.64,5.09-4.39l7.97,8.82-11.66,43.14c-2.28,8.41,2.72,17.11,11.14,19.39,8.52,2.28,17.13-2.79,19.39-11.14l13.92-51.47c1.39-5.18.08-10.72-3.53-14.71l-33.43-37.03,22.25-21.68,3.39,10.95c1.31,4.26,4.68,7.57,8.96,8.79l42.04,12.04c7.02,2.02,14.3-2.07,16.3-9.04,2-7-2.04-14.29-9.04-16.29Z"/><path class="cls-2" d="m422.79,214.5l-15.41-43.23c-1.63-4.57-5.65-7.88-10.45-8.61l-52.64-7.91c-2.4-.35-7.68.03-11.37,1.59l-8.25,3.47c-10.11,4.27-15.05,15.54-11.68,25.79l-11.59,13.77-36.34-4.4c-7.39-.87-13.8,4.27-14.67,11.49-.87,7.24,4.27,13.79,11.49,14.66l43.43,5.27c4.33.54,8.74-1.13,11.69-4.6l7.35-8.75,13.24,31.45-21.85,15.62c-2.11,1.52-3.82,3.52-4.97,5.83l-34.27,68.99c-3.88,7.81-.69,17.31,7.13,21.2,7.79,3.85,17.29.74,21.21-7.13l26.68-53.74,47.13,56.81c5.55,6.67,15.5,7.66,22.27,2.07,6.73-5.58,7.65-15.55,2.07-22.27l-43.18-52.04,26.8-26.16c5.84-5.7,4.35-13.95,1.18-20.98l-20.1-47.74,17.53,2.63,12.76,35.79c2.46,6.91,10.05,10.44,16.84,7.98,6.85-2.44,10.43-9.98,7.98-16.83Z"/><path class="cls-2" d="m336.04,141.74c12.39-5.2,18.19-19.45,12.98-31.85-5.21-12.37-19.47-18.2-31.84-12.98-12.39,5.21-18.22,19.48-13.01,31.87,5.23,12.36,19.5,18.2,31.87,12.95Z"/><path class="cls-2" d="m202.27,453.07c-24.92-7.97-44.32-18.47-66.77-31.89-18.23-10.9-35.98-24.08-46.44-42.57-1.63-2.89-2.22-7.81,1.05-8.38,1.16-.21,2.31.36,3.33.96,8.2,4.79,14.18,12.5,20.59,19.51,24.63,26.96,57.27,45,89.29,62.56"/></g></svg>