<?xml version="1.0" encoding="UTF-8"?><svg xmlns="http://www.w3.org/2000/svg" viewBox="0 0 500 500"><defs><style>.cls-1{fill:#012c17;}.cls-2{fill:#fff;}.cls-3{fill:#76b82a;}</style></defs><g id="donker_groen"><path class="cls-1" d="m484.68,178.83c23.26,59.73,4.86,149.56-32.8,200.9-19.75,26.93-46.97,47.17-75.75,63.3-40.14,22.5-84.45,37.81-130.02,41.25s-92.42-5.38-132.34-28.28C54.39,421.92,13.36,356.54,6.23,286.87c-2.33-22.81-1.25-45.99,3.19-68.47C25.7,136.14,88.47,67.3,164.82,38.02,241.17,8.74,338.29,1.09,402.31,53c53.18,43.12,67.6,87.93,82.36,125.83Z"/><path class="cls-3" d="m108.88,59.76c61.87-33.33,135.49-43.23,203.68-27.38,25.46,5.92,50.33,15.39,72.17,30.03,39.31,26.34,67.12,68.77,80.12,114.96,13.01,46.19,11.82,95.86.82,142.6-6.87,29.21-17.73,57.87-35.55,81.75-39.65,53.11-108.98,75.43-174.3,74.46-47.13-.7-95.28-12.56-133.14-41.29-53.05-40.25-79.69-109.26-83.39-176.72-2-36.46,1.94-73.26,11.62-108.41,9.71-35.25,26.45-68.01,56.1-88.53"/></g><g id="Iconen"><path class="cls-2" d="m202.27,453.07c-24.92-7.97-44.32-18.47-66.77-31.89-18.23-10.9-35.98-24.08-46.44-42.57-1.63-2.89-2.22-7.81,1.05-8.38,1.16-.21,2.31.36,3.33.96,8.2,4.79,14.18,12.5,20.59,19.51,24.63,26.96,57.27,45,89.29,62.56"/><path class="cls-2" d="m372.23,309.89c8.92-12.92,13.72-28.24,13.77-43.94,0-31.8-19.67-59.54-48.65-73.95,1.73,7.63,2.65,15.54,2.65,23.64,0,58.28-47.2,106.66-108.51,114.89,16.36,12.39,37.47,19.87,60.5,19.87,14.18.01,28.21-2.9,41.2-8.57l39.77,12.75c2.83.91,5.93.16,8.03-1.94,2.13-2.07,2.91-5.17,2.01-8l-10.77-34.73Z"/><path class="cls-2" d="m215.81,119c-59.02,0-107.01,43.13-107.01,96.13.05,17.87,5.52,35.31,15.67,50.02l-12.26,39.54c-1.02,3.22-.14,6.75,2.29,9.1,1.71,1.72,4.02,2.65,6.38,2.65.92,0,1.86-.14,2.77-.44l45.27-14.51c14.76,6.44,30.69,9.76,46.79,9.76h.11c59.02,0,107.01-43.13,107.01-96.13s-47.99-96.13-107.01-96.13Zm-.92,153.62c-11.44,0-18.87-6.03-18.87-14.85s7.42-15,18.87-15c10.21,0,17.79,5.88,17.79,15s-6.65,14.85-17.79,14.85Zm24.28-57.84c-6.34,2.94-10.83,5.57-9.74,12.99.77,5.26-2.78,11.29-15.62,11.29-8.82,0-16.7-3.4-16.7-12.53,0-5.57,1.24-10.83,10.21-16.39,5.72-3.71,12.99-6.8,12.99-11.44,0-2.63-2.01-5.41-8.35-5.41-4.95,0-10.52,1.39-10.52,7.11,0,4.79-4.02,7.58-10.67,7.58s-13.76-4.33-13.3-16.7c.46-20.88,19.49-28.46,38.35-28.46,26.91,0,38.35,13.61,38.35,27.84s-6.34,20.26-15,24.13Z"/></g></svg>