<?xml version="1.0" encoding="UTF-8"?><svg xmlns="http://www.w3.org/2000/svg" viewBox="0 0 500 500"><defs><style>.cls-1{fill:#012c17;}.cls-2{fill:#fff;}.cls-3{fill:#76b82a;}</style></defs><g id="donker_groen"><path class="cls-1" d="m484.68,178.83c23.26,59.73,4.86,149.56-32.8,200.9-19.75,26.93-46.97,47.17-75.75,63.3-40.14,22.5-84.45,37.81-130.02,41.25s-92.42-5.38-132.34-28.28C54.39,421.92,13.36,356.54,6.23,286.87c-2.33-22.81-1.25-45.99,3.19-68.47C25.7,136.14,88.47,67.3,164.82,38.02,241.17,8.74,338.29,1.09,402.31,53c53.18,43.12,67.6,87.93,82.36,125.83Z"/><path class="cls-3" d="m108.88,59.76c61.87-33.33,135.49-43.23,203.68-27.38,25.46,5.92,50.33,15.39,72.17,30.03,39.31,26.34,67.12,68.77,80.12,114.96,13.01,46.19,11.82,95.86.82,142.6-6.87,29.21-17.73,57.87-35.55,81.75-39.65,53.11-108.98,75.43-174.3,74.46-47.13-.7-95.28-12.56-133.14-41.29-53.05-40.25-79.69-109.26-83.39-176.72-2-36.46,1.94-73.26,11.62-108.41,9.71-35.25,26.45-68.01,56.1-88.53"/></g><g id="Iconen"><path class="cls-2" d="m202.27,453.07c-24.92-7.97-44.32-18.47-66.77-31.89-18.23-10.9-35.98-24.08-46.44-42.57-1.63-2.89-2.22-7.81,1.05-8.38,1.16-.21,2.31.36,3.33.96,8.2,4.79,14.18,12.5,20.59,19.51,24.63,26.96,57.27,45,89.29,62.56"/><path class="cls-2" d="m387.39,295.35c-5.39-3.1-12.24-1.25-15.34,4.11l-29.73-17.17c4.02-9.16,6.71-19.03,7.85-29.37.22.01.42.12.64.12h22.46c6.2,0,11.23-5.02,11.23-11.23s-5.03-11.23-11.23-11.23h-22.46c-.22,0-.42.11-.64.12-1.13-10.35-3.84-20.21-7.85-29.37l29.73-17.17c2.09,3.59,5.85,5.61,9.73,5.61,1.9,0,3.83-.48,5.6-1.5,5.37-3.1,7.21-9.97,4.11-15.34l-11.23-19.45c-3.1-5.37-9.96-7.23-15.34-4.11-5.37,3.1-7.21,9.97-4.11,15.34l-29.81,17.21c-5.91-8.01-12.95-15.08-20.92-21.03l16.43-25.23c3.38-5.2,1.91-12.16-3.28-15.54-5.19-3.38-12.16-1.92-15.53,3.28l-16.99,26.09c-9.26-4.13-19.26-6.93-29.74-8.08v-34.35c6.2,0,11.23-5.02,11.23-11.23s-5.03-11.23-11.23-11.23h-22.46c-6.2,0-11.23,5.02-11.23,11.23s5.03,11.23,11.23,11.23v34.35c-10.49,1.16-20.48,3.95-29.74,8.07l-16.99-26.09c-3.38-5.2-10.34-6.66-15.53-3.28-5.2,3.38-6.67,10.34-3.29,15.54l16.43,25.23c-7.97,5.95-15.01,13.04-20.92,21.03l-29.8-17.2c3.1-5.38,1.26-12.24-4.11-15.34-5.39-3.12-12.25-1.26-15.35,4.11l-11.23,19.45c-3.1,5.38-1.26,12.24,4.11,15.34,1.77,1.02,3.71,1.5,5.6,1.5,3.88,0,7.65-2.02,9.73-5.61l29.73,17.17c-4.01,9.16-6.73,19.03-7.85,29.37-.21-.01-.4-.12-.63-.12h-22.46c-6.2,0-11.23,5.02-11.23,11.23s5.03,11.23,11.23,11.23h22.46c.22,0,.42-.11.64-.12,1.13,10.35,3.84,20.21,7.85,29.37l-29.73,17.17c-3.11-5.37-9.97-7.22-15.34-4.11-5.37,3.1-7.21,9.97-4.11,15.34l11.23,19.45c2.09,3.59,5.85,5.61,9.73,5.61,1.9,0,3.83-.48,5.6-1.5,5.37-3.1,7.21-9.97,4.11-15.34l29.81-17.21c5.91,8.01,12.95,15.08,20.92,21.03l-16.43,25.23c-3.38,5.2-1.91,12.16,3.28,15.54,1.89,1.24,4.01,1.83,6.11,1.83,3.67,0,7.26-1.8,9.42-5.1l16.99-26.09c9.27,4.12,19.26,6.92,29.74,8.07v34.35c-6.2,0-11.23,5.02-11.23,11.23s5.03,11.23,11.23,11.23h22.46c6.2,0,11.23-5.02,11.23-11.23s-5.03-11.23-11.23-11.23v-34.35c10.49-1.16,20.48-3.95,29.74-8.07l16.99,26.09c2.16,3.3,5.75,5.1,9.42,5.1,2.1,0,4.22-.6,6.11-1.82,5.2-3.38,6.67-10.34,3.28-15.54l-16.43-25.23c7.97-5.95,15.01-13.04,20.92-21.03l29.81,17.21c-3.1,5.38-1.26,12.24,4.11,15.34,1.77,1.02,3.71,1.5,5.6,1.5,3.88,0,7.66-2.02,9.73-5.61l11.23-19.45c3.1-5.39,1.26-12.25-4.11-15.35h0Zm-182.54-8.62c-12.41,0-22.46-10.05-22.46-22.46s10.05-22.46,22.46-22.46,22.46,10.05,22.46,22.46-10.05,22.46-22.46,22.46Zm50.52-78.59c-9.3,0-16.84-7.55-16.84-16.84s7.55-16.84,16.84-16.84,16.84,7.55,16.84,16.84-7.55,16.84-16.84,16.84Zm16.84,72.98c0-9.3,7.55-16.84,16.84-16.84s16.84,7.55,16.84,16.84-7.55,16.84-16.84,16.84-16.84-7.55-16.84-16.84Z"/></g></svg>