<?xml version="1.0" encoding="UTF-8"?><svg xmlns="http://www.w3.org/2000/svg" viewBox="0 0 500 500"><defs><style>.cls-1{fill:#012c17;}.cls-2{fill:#fff;}.cls-3{fill:#76b82a;}</style></defs><g id="donker_groen"><path class="cls-1" d="m484.68,178.83c23.26,59.73,4.86,149.56-32.8,200.9-19.75,26.93-46.97,47.17-75.75,63.3-40.14,22.5-84.45,37.81-130.02,41.25-45.57,3.43-92.42-5.38-132.34-28.28C54.39,421.92,13.36,356.54,6.23,286.87c-2.33-22.81-1.25-45.99,3.19-68.47C25.7,136.14,88.47,67.3,164.82,38.02,241.17,8.74,338.29,1.09,402.31,53c53.18,43.12,67.6,87.93,82.36,125.83Z"/><path class="cls-3" d="m108.88,59.76c61.87-33.33,135.49-43.23,203.68-27.38,25.46,5.92,50.33,15.39,72.17,30.03,39.31,26.34,67.12,68.77,80.12,114.96,13.01,46.19,11.82,95.86.82,142.6-6.87,29.21-17.73,57.87-35.55,81.75-39.65,53.11-108.98,75.43-174.3,74.46-47.13-.7-95.28-12.56-133.14-41.29-53.05-40.25-79.69-109.26-83.39-176.72-2-36.46,1.94-73.26,11.62-108.41,9.71-35.25,26.45-68.01,56.1-88.53"/></g><g id="Iconen"><path class="cls-2" d="m202.27,453.07c-24.92-7.97-44.32-18.47-66.77-31.89-18.23-10.9-35.98-24.08-46.44-42.57-1.63-2.89-2.22-7.81,1.05-8.38,1.16-.21,2.31.36,3.33.96,8.2,4.79,14.18,12.5,20.59,19.51,24.63,26.96,57.27,45,89.29,62.56"/><path class="cls-2" d="m180.97,250.17l26.7-22.52c2.15-1.81,5.08-2.36,7.74-1.46,2.66.91,4.64,3.14,5.24,5.88l12.6,58.29,45.23-78.3c1.73-3,5.19-4.54,8.57-3.83,3.38.71,5.93,3.52,6.31,6.96l5.04,45.92,70.79,14.6c12.53-19.12,18.95-37.53,19.06-54.77.14-22.5-8.54-44.23-23.82-59.61-13.92-14.01-32.06-21.73-51.07-21.73-25.79,0-49.36,14.45-62.93,37.33-13.57-22.88-37.14-37.33-62.93-37.33-20.12,0-38.98,8.55-53.12,24.08-13.9,15.27-21.63,35.57-21.77,57.15-.03,5.08.51,10.27,1.58,15.55l66.79,13.78Z"/><path class="cls-2" d="m289.45,275.61c-3.4-.7-5.96-3.51-6.34-6.96l-3.01-27.43-43.37,75.1c-1.44,2.5-4.1,4-6.93,4-.41,0-.83-.03-1.24-.1-3.27-.51-5.88-2.98-6.58-6.21l-14.17-65.55-19.5,16.45c-1.88,1.58-4.37,2.21-6.77,1.72l-61.97-12.78c3.53,8.53,8.37,17.25,14.55,26.12,11.13,15.98,26.6,32.55,45.97,49.27,32.69,28.2,64.93,46.91,66.28,47.69,1.25.72,2.64,1.08,4.04,1.08s2.8-.36,4.06-1.09c1.35-.78,33.35-19.5,65.92-47.69,15.32-13.26,28.2-26.43,38.45-39.29l-69.39-14.32Z"/></g></svg>