<?xml version="1.0" encoding="UTF-8"?><svg xmlns="http://www.w3.org/2000/svg" viewBox="0 0 500 500"><defs><style>.cls-1{fill:#012c17;}.cls-2{fill:#fff;}.cls-3{fill:#76b82a;}</style></defs><g id="donker_groen"><path class="cls-1" d="m484.68,178.83c23.26,59.73,4.86,149.56-32.8,200.9-19.75,26.93-46.97,47.17-75.75,63.3-40.14,22.5-84.45,37.81-130.02,41.25s-92.42-5.38-132.34-28.28C54.39,421.92,13.36,356.54,6.23,286.87c-2.33-22.81-1.25-45.99,3.19-68.47C25.7,136.14,88.47,67.3,164.82,38.02,241.17,8.74,338.29,1.09,402.31,53c53.18,43.12,67.6,87.93,82.36,125.83Z"/><path class="cls-3" d="m108.88,59.76c61.87-33.33,135.49-43.23,203.68-27.38,25.46,5.92,50.33,15.39,72.17,30.03,39.31,26.34,67.12,68.77,80.12,114.96,13.01,46.19,11.82,95.86.82,142.6-6.87,29.21-17.73,57.87-35.55,81.75-39.65,53.11-108.98,75.43-174.3,74.46-47.13-.7-95.28-12.56-133.14-41.29-53.05-40.25-79.69-109.26-83.39-176.72-2-36.46,1.94-73.26,11.62-108.41,9.71-35.25,26.45-68.01,56.1-88.53"/></g><g id="Iconen"><path class="cls-2" d="m202.27,453.07c-24.92-7.97-44.32-18.47-66.77-31.89-18.23-10.9-35.98-24.08-46.44-42.57-1.63-2.89-2.22-7.81,1.05-8.38,1.16-.21,2.31.36,3.33.96,8.2,4.79,14.18,12.5,20.59,19.51,24.63,26.96,57.27,45,89.29,62.56"/><path class="cls-2" d="m343.33,163.39h-127.93c-11.49,0-20.84,9.35-20.84,20.85s9.35,20.84,20.84,20.84h127.93c11.49,0,20.84-9.35,20.84-20.84,0-11.51-9.35-20.85-20.84-20.85Z"/><path class="cls-2" d="m158.55,163.39c-11.5,0-20.85,9.35-20.85,20.85s9.35,20.85,20.85,20.85,20.85-9.35,20.85-20.85-9.35-20.85-20.85-20.85Z"/><path class="cls-2" d="m158.55,227.35c-11.5,0-20.85,9.35-20.85,20.85s9.35,20.85,20.85,20.85,20.85-9.35,20.85-20.85-9.35-20.85-20.85-20.85Z"/><path class="cls-2" d="m158.55,291.3c-11.5,0-20.85,9.35-20.85,20.85s9.35,20.85,20.85,20.85,20.85-9.35,20.85-20.85-9.35-20.85-20.85-20.85Z"/><path class="cls-2" d="m343.33,227.35h-127.93c-11.49,0-20.84,9.35-20.84,20.85s9.35,20.84,20.84,20.84h127.93c11.49,0,20.84-9.35,20.84-20.84,0-11.51-9.35-20.85-20.84-20.85h0Z"/><path class="cls-2" d="m343.33,291.3h-127.93c-11.49,0-20.84,9.35-20.84,20.85s9.35,20.84,20.84,20.84h127.93c11.49,0,20.84-9.35,20.84-20.84,0-11.51-9.35-20.85-20.84-20.85Z"/></g></svg>