<?xml version="1.0" encoding="UTF-8"?><svg xmlns="http://www.w3.org/2000/svg" viewBox="0 0 500 500"><defs><style>.cls-1{fill:#012c17;}.cls-2{fill:#fff;}.cls-3{fill:#76b82a;}</style></defs><g id="donker_groen"><path class="cls-1" d="m484.68,178.83c23.26,59.73,4.86,149.56-32.8,200.9-19.75,26.93-46.97,47.17-75.75,63.3-40.14,22.5-84.45,37.81-130.02,41.25-45.57,3.43-92.42-5.38-132.34-28.28C54.39,421.92,13.36,356.54,6.23,286.87c-2.33-22.81-1.25-45.99,3.19-68.47C25.7,136.14,88.47,67.3,164.82,38.02,241.17,8.74,338.29,1.09,402.31,53c53.18,43.12,67.6,87.93,82.36,125.83Z"/><path class="cls-3" d="m108.88,59.76c61.87-33.33,135.49-43.23,203.68-27.38,25.46,5.92,50.33,15.39,72.17,30.03,39.31,26.34,67.12,68.77,80.12,114.96,13.01,46.19,11.82,95.86.82,142.6-6.87,29.21-17.73,57.87-35.55,81.75-39.65,53.11-108.98,75.43-174.3,74.46-47.13-.7-95.28-12.56-133.14-41.29-53.05-40.25-79.69-109.26-83.39-176.72-2-36.46,1.94-73.26,11.62-108.41,9.71-35.25,26.45-68.01,56.1-88.53"/></g><g id="Iconen"><path class="cls-2" d="m202.27,453.07c-24.92-7.97-44.32-18.47-66.77-31.89-18.23-10.9-35.98-24.08-46.44-42.57-1.63-2.89-2.22-7.81,1.05-8.38,1.16-.21,2.31.36,3.33.96,8.2,4.79,14.18,12.5,20.59,19.51,24.63,26.96,57.27,45,89.29,62.56"/><path class="cls-2" d="m359.51,267.67c16.32-26.82,21.02-59.59,12.91-89.91-13.5-50.44-59.38-85.67-111.6-85.67h-7.44c-62.66,0-113.64,50.98-113.64,113.64v15.08l-21.13,32.48c-2.47,3.79-3.17,8.46-1.92,12.8s4.31,7.93,8.41,9.84l15.18,7.05,6.01,34.22c3.06,17.39,18.09,30.01,35.75,30.01h27.82c3.65,0,6.83,2.59,7.57,6.16l4.49,21.61c.48,2.34,2.55,4.01,4.94,4.01h107.14c1.52,0,2.95-.69,3.91-1.86.96-1.17,1.34-2.72,1.02-4.21l-6.86-33c-2.71-13.06-.39-26.52,6.54-37.91l20.9-34.35Zm-55.05-11.88c-.14,0-.28,0-.42,0-16.08,0-29.61-11.24-32.56-26.97-5.78-.8-11.2-3.48-15.33-7.61-2.54-2.5-6.57-7.93-5.6-12.37.31-1.4,1.28-3.29,4.2-4.36,1.64-.44,3.27-.22,4.66.59,1.36.79,2.34,2.05,2.77,3.57l.03.09c1.39,3.76,4.67,6.58,9.02,7.75,5.06,1.36,10.5.29,14.18-2.79,4.12-3.21,6.27-8.38,5.65-13.53-.19-3.4,2.37-6.26,5.71-6.44,3.25-.18,6.08,2.25,6.37,5.53,1.08,13-7.06,24.9-19.45,28.66,1.67,6.13,5.38,10.74,10.75,13.38,6.58,3.23,15.25,3.15,22.62-.22,7.69-2.85,12.98-8.32,14.94-15.42,1.94-7.03.4-15.07-4.02-21.35-.03.07-.07.15-.1.22-1.95,4.44-4.91,11.15-10.39,11.78h-.06s-.06,0-.06,0c-1.63-.02-3.15-.68-4.29-1.85s-1.75-2.71-1.72-4.34c.02-1.37.51-2.7,1.37-3.76,11.92-13.97,3.07-31.74,2.02-33.71-8.06-14.75-27.07-14.92-27.26-14.92-2.09.05-4.09-1.04-5.19-2.85-11.5-17.71-31.83-20.02-45.85-14.67-15.67,5.98-24.16,20.4-21.63,36.74.54,3.28-1.7,6.4-4.99,6.94-3.23.53-6.26-1.57-6.91-4.78-.61-3.95-.72-7.92-.33-11.85-8.52,2.16-14.83,6.47-18.75,12.81-3.22,5.21-3.55,9.9-3.55,9.95-2.42,16.03,7.21,31.15,22.53,35.78.28-8.06,3.53-15.61,9.24-21.38,6.02-6.08,14.04-9.46,22.6-9.51h.1c1.86-.19,4.59-.07,6.49,1.6,1.21,1.06,1.85,2.54,1.92,4.41-.05,1.93-.69,3.41-1.89,4.47-1.88,1.66-4.59,1.79-6.56,1.61-5.29.06-10.24,2.17-13.95,5.95-3.72,3.79-5.74,8.8-5.69,14.11.1,10.76,8.93,19.6,19.7,19.7h14.26c10.85.02,19.67,8.86,19.66,19.71v26.82c-.02,1.63-.67,3.14-1.83,4.26-1.14,1.1-2.63,1.71-4.21,1.71-.03,0-.06,0-.09,0-3.29-.05-5.91-2.66-5.96-5.96v-26.84c0-4.19-3.39-7.6-7.58-7.62h-14.27c-13.07-.03-24.61-7.8-29.57-19.84-18.77-3.88-39.52-19.18-36.98-49.86,0-.21,2.2-29.62,37.37-34.71,5.77-15.5,19.98-26.06,38.14-28.29,19.14-2.36,37.09,5.19,46.99,19.7,22.89,1.09,40.85,20.34,40.35,43.26,12.32,11.58,17,28.15,11.91,42.33-5.17,14.41-19.19,23.3-38.47,24.38Zm-43.77-90.15c-4.29-3.19-10.39-2.34-13.66,1.88-.67,1.46-1.85,2.58-3.35,3.17-1.54.61-3.22.58-4.73-.08-1.52-.66-2.68-1.87-3.29-3.4-.61-1.54-.58-3.22.08-4.73.37-.85.93-1.62,1.64-2.23,9.24-11.56,22.22-10.26,30.4-4.15,8.2,6.13,13.14,18.27,4.62,30.45-.67,1.46-1.87,2.59-3.37,3.17-.73.28-1.48.42-2.24.42-.85,0-1.69-.18-2.49-.53-3.12-1.37-4.54-5.03-3.16-8.14h0c.36-.83.91-1.57,1.59-2.16,3.17-4.33,2.27-10.46-2.03-13.69Z"/></g></svg>