<?xml version="1.0" encoding="UTF-8"?><svg xmlns="http://www.w3.org/2000/svg" viewBox="0 0 500 500"><defs><style>.cls-1{fill:#012c17;}.cls-2{fill:#fff;}.cls-3{fill:#76b82a;}</style></defs><g id="donker_groen"><path class="cls-1" d="m484.68,178.83c23.26,59.73,4.86,149.56-32.8,200.9-19.75,26.93-46.97,47.17-75.75,63.3-40.14,22.5-84.45,37.81-130.02,41.25-45.57,3.43-92.42-5.38-132.34-28.28C54.39,421.92,13.36,356.54,6.23,286.87c-2.33-22.81-1.25-45.99,3.19-68.47C25.7,136.14,88.47,67.3,164.82,38.02,241.17,8.74,338.29,1.09,402.31,53c53.18,43.12,67.6,87.93,82.36,125.83Z"/><path class="cls-3" d="m108.88,59.76c61.87-33.33,135.49-43.23,203.68-27.38,25.46,5.92,50.33,15.39,72.17,30.03,39.31,26.34,67.12,68.77,80.12,114.96,13.01,46.19,11.82,95.86.82,142.6-6.87,29.21-17.73,57.87-35.55,81.75-39.65,53.11-108.98,75.43-174.3,74.46-47.13-.7-95.28-12.56-133.14-41.29-53.05-40.25-79.69-109.26-83.39-176.72-2-36.46,1.94-73.26,11.62-108.41,9.71-35.25,26.45-68.01,56.1-88.53"/><circle class="cls-3" cx="192" cy="217" r="16"/></g><g id="Iconen"><path class="cls-2" d="m202.27,453.07c-24.92-7.97-44.32-18.47-66.77-31.89-18.23-10.9-35.98-24.08-46.44-42.57-1.63-2.89-2.22-7.81,1.05-8.38,1.16-.21,2.31.36,3.33.96,8.2,4.79,14.18,12.5,20.59,19.51,24.63,26.96,57.27,45,89.29,62.56"/><path class="cls-2" d="m177.09,178.47c20.93,0,38.01,17.02,38.01,38.01s-17.02,38.01-38.01,38.01v-.06h-17.36c-11.86,0-22.35,8.4-22.35,23.31v14.75h-17.02v-18.66c0-20.42,18.15-35.85,39.37-35.85h17.36v.06c11.57,0,20.99-11.12,20.99-22.69s-9.42-19.85-20.99-19.85v-17.02"/><path class="cls-2" d="m137.38,303.84v34.04h-17.02v-34.04h17.02"/><path class="cls-2" d="m318.91,303.84v34.04h-170.18v-34.04h170.18"/><path class="cls-2" d="m154.4,145v17.02c-11.57,0-20.99,9.42-20.99,20.99s9.42,20.99,20.99,20.99v17.02c-25.47,0-45.38,20.71-45.38,46.18v25.3h-17.02v-25.36c0-25.24,14.52-47.03,35.74-57.12-6.98-6.86-11.35-16.45-11.35-27,0-20.99,17.08-38.01,38.01-38.01"/><path class="cls-2" d="m109.02,303.84v34.04h-17.02v-34.04h17.02"/><path class="cls-2" d="m263.58,117.48h-82.54c-5.32,0-9.63,4.31-9.63,9.63v39.31h5.78c13.33.02,25.88,5.24,35.32,14.69,9.45,9.46,14.65,22.03,14.63,35.38-.02,13.65-5.54,26.03-14.45,35.05v40.29l19.27.02v-42.55c23.48-4.52,41.27-25.2,41.27-49.98v-72.22c0-5.32-4.31-9.63-9.63-9.63Z"/><path class="cls-2" d="m177.13,207.45h-5.07c1.06,6.61,3.4,12.79,6.76,18.3,3.88-1.1,7.28-5.72,7.29-10.43,0-5.4-4.65-7.86-8.98-7.87Z"/><path class="cls-2" d="m420.51,210.19c.26-.6.14-1.3-.29-1.8-.44-.49-1.11-.69-1.75-.51-29.02,9.48-60.48,28.25-79.19,53.8h-.17c10.52-39.41,2.3-86.3-13.79-122.7-.26-.6-.85-.99-1.5-.99s-1.24.39-1.5.99c-16.13,36.74-24.28,83.49-13.79,122.7h-.17c-7.68-10.4-17.5-19.72-28.44-27.76-5.32,9.44-12.75,17.59-21.73,23.75,8.58,9.32,18.23,17.58,28.73,23.88-13.42-.19-26.72,2.19-39.19,6.97v3.31h83.18v21.93c6.6,8.63,16.87,14.62,26.98,17.8.59.25,1.26.16,1.76-.23.5-.39.76-1.01.68-1.64-1.44-7.93-4.37-15.51-8.65-22.34,19.4,3.04,40.31-1.84,57.68-10.35.69-.47,1.1-1.24,1.1-2.07s-.41-1.6-1.1-2.07c-15.17-7.65-31.97-11.53-48.96-11.29,26.45-15.93,47.86-44.55,60.12-71.37Z"/><path class="cls-2" d="m275.88,413.86c17.49,4.76,35.42-3.78,42.8-20.01l-69.56-18.93c-1.85,17.73,9.27,34.18,26.76,38.94Z"/><path class="cls-2" d="m252.27,363.35l69.56,18.93c1.33-12.69-3.99-24.71-13.54-32.28h-45.66c-4.34,3.48-7.93,7.99-10.37,13.35Z"/></g></svg>