<svg xmlns="http://www.w3.org/2000/svg"><g id="Page-1" fill="none" fill-rule="evenodd"><g id="004---Rollerblading" fill-rule="nonzero" transform="translate(-1 -1)"><path id="Rectangle-path" d="m8 45h45v8h-45z" fill="#393f4a"/><path id="Shape" d="m57 41v2c0 2.209139-1.790861 4-4 4h-46c-2.209139 0-4-1.790861-4-4v-2z" fill="#285680"/><path id="Shape" d="m2.65 25.84.33-.86 1.16-6.98 25.51-5.44c1.63 6.09 4.81 12.66 11.02 13.39l16.02 11.48c.2121276 1.1780375.3158945 2.3730306.3102377 3.57h-44.0002377z" fill="#3b97d3"/><path id="Shape" d="m56.69 37.43c-4.8843202-2.9188215-10.5591976-4.2370155-16.23-3.77-.6361082.0461972-1.2561074-.2137595-1.6690522-.6998093-.4129448-.4860499-.5693133-1.1399041-.4209478-1.7601907.5097177-1.8516737 1.2843929-3.619954 2.3-5.25l.32.03c10.14.84 14.57 5.26 15.7 11.45z" fill="#bdc3c7"/><path id="Shape" d="m29.65 12.56-2.9 1.63c-2.1117882 1.1560884-3.3400115 3.4516495-3.13 5.85l.2 2.17c.0166422.1594284.0233218.3197398.02.48-.0458038 2.7565707-2.1640103 5.0343977-4.91 5.28-2.4339612.2834389-4.7661385-1.0614229-5.74-3.31l-1.62-3.89c-.9226824-1.6700038-2.66259459-2.7246115-4.57-2.77h-2.86l1.51-9.03c.20957182-1.26361388 1.01304609-2.34979206 2.16-2.92l9.67-4.84c.3400025-.17046833.7217528-.23987748 1.1-.2l7.73.78c.954134.08671803 1.7085988.84539772 1.79 1.8.2711872 3.02726598.7895829 6.02727208 1.55 8.97z" fill="#bdc3c7"/><path id="Shape" d="m13 41h-10l-1.05-2.77c-1.27181954-3.4023016-1.26826711-7.1501155.01-10.55l.69-1.84c3.8 1.69 10.35 5.93 10.35 15.16z" fill="#bdc3c7"/><circle id="Oval" cx="18" cy="22" fill="#7f8c8d" r="4"/><circle id="Oval" cx="18" cy="22" fill="#ecf0f1" r="2"/><path id="Shape" d="m28 24c-.3882927.0001783-.7415861-.2244341-.9061765-.5761176-.1645904-.3516834-.1107192-.7668519.1381765-1.0648824l3.8-4.55c.3553722-.4187175.9819229-.4724884 1.4034423-.1204441.4215194.3520442.4802518.9781492.1315577 1.4024441l-3.8 4.55c-.1898764.2273603-.4707809.3588397-.767.359z" fill="#285680"/><path id="Shape" d="m32 28c-.3880873.0002427-.7412698-.2240762-.9060311-.5754528-.1647614-.3513766-.1113449-.7663507.1370311-1.0645472l3.13-3.759c.3531861-.4249831.9840169-.4831861 1.409-.13s.4831861.9840169.13 1.409l-3.129 3.76c-.19058.2288098-.4732181.3607809-.771.36z" fill="#285680"/><circle id="Oval" cx="8" cy="53" fill="#f9eab0" r="6"/><circle id="Oval" cx="8" cy="53" fill="#7f8c8d" r="3"/><circle id="Oval" cx="23" cy="53" fill="#f9eab0" r="6"/><circle id="Oval" cx="23" cy="53" fill="#7f8c8d" r="3"/><circle id="Oval" cx="38" cy="53" fill="#f9eab0" r="6"/><circle id="Oval" cx="38" cy="53" fill="#7f8c8d" r="3"/><circle id="Oval" cx="53" cy="53" fill="#f9eab0" r="6"/><circle id="Oval" cx="53" cy="53" fill="#7f8c8d" r="3"/><g fill="#ecf0f1"><circle id="Oval" cx="53" cy="53" r="1"/><circle id="Oval" cx="38" cy="53" r="1"/><circle id="Oval" cx="23" cy="53" r="1"/><circle id="Oval" cx="8" cy="53" r="1"/></g></g></g></svg>