<?xml version="1.0" encoding="UTF-8"?><svg xmlns="http://www.w3.org/2000/svg" viewBox="0 0 500 500"><defs><style>.cls-1{fill:#012c17;}.cls-2,.cls-3{fill:#fff;}.cls-4{fill:#76b82a;}.cls-3{fill-rule:evenodd;}</style></defs><g id="donker_groen"><path class="cls-1" d="m484.68,178.83c23.26,59.73,4.86,149.56-32.8,200.9-19.75,26.93-46.97,47.17-75.75,63.3-40.14,22.5-84.45,37.81-130.02,41.25s-92.42-5.38-132.34-28.28C54.39,421.92,13.36,356.54,6.23,286.87c-2.33-22.81-1.25-45.99,3.19-68.47C25.7,136.14,88.47,67.3,164.82,38.02,241.17,8.74,338.29,1.09,402.31,53c53.18,43.12,67.6,87.93,82.36,125.83Z"/><path class="cls-4" d="m108.88,59.76c61.87-33.33,135.49-43.23,203.68-27.38,25.46,5.92,50.33,15.39,72.17,30.03,39.31,26.34,67.12,68.77,80.12,114.96,13.01,46.19,11.82,95.86.82,142.6-6.87,29.21-17.73,57.87-35.55,81.75-39.65,53.11-108.98,75.43-174.3,74.46-47.13-.7-95.28-12.56-133.14-41.29-53.05-40.25-79.69-109.26-83.39-176.72-2-36.46,1.94-73.26,11.62-108.41,9.71-35.25,26.45-68.01,56.1-88.53"/></g><g id="Iconen"><path class="cls-2" d="m202.27,453.07c-24.92-7.97-44.32-18.47-66.77-31.89-18.23-10.9-35.98-24.08-46.44-42.57-1.63-2.89-2.22-7.81,1.05-8.38,1.16-.21,2.31.36,3.33.96,8.2,4.79,14.18,12.5,20.59,19.51,24.63,26.96,57.27,45,89.29,62.56"/><path class="cls-3" d="m141.81,329.8v27.31c0,2.16-1.76,3.89-3.94,3.89h-7.73c-2.21,0-3.94-1.74-3.94-3.89v-156.04c0-2.16,1.76-3.89,3.94-3.89h7.73c2.21,0,3.94,1.74,3.94,3.89v81.92h230.11c10.76,0,19.51,8.75,19.51,19.47v54.6c0,2.18-1.76,3.93-3.94,3.93h-7.73c-2.21,0-3.94-1.74-3.94-3.89v-27.31h-234.02Z"/><path class="cls-3" d="m279.14,126.16c-4.05-11.12-16.36-16.85-27.47-12.81l-.3.11c-11.12,4.05-16.86,16.33-12.81,27.47l12.32,33.84c1.47,4.05,5.95,6.14,10,4.66l33.84-12.32c11.13-4.05,16.86-16.34,12.81-27.47l-.11-.3c-4.04-11.11-16.35-16.85-27.47-12.81l-.59.22-.22-.59Z"/><path class="cls-3" d="m155.75,110.93c-11.12-4.05-23.43,1.7-27.47,12.81l-.11.3c-4.05,11.12,1.68,23.41,12.81,27.47l33.84,12.32c4.05,1.47,8.52-.61,10-4.66l12.32-33.84c4.05-11.13-1.68-23.42-12.81-27.47l-.3-.11c-11.11-4.04-23.42,1.69-27.47,12.81l-.22.59-.59-.22Z"/><circle class="cls-2" cx="176.91" cy="240.09" r="23.4"/><circle class="cls-2" cx="208.11" cy="193.29" r="23.4"/><path class="cls-3" d="m358.82,267.28h31.23c-7.43-42.05-44.15-73.99-88.33-73.99s-80.97,32-88.36,74.11h145.45v-.11Z"/></g></svg>