<?xml version="1.0" encoding="UTF-8"?><svg xmlns="http://www.w3.org/2000/svg" viewBox="0 0 500 500"><defs><style>.cls-1{fill:#012c17;}.cls-2,.cls-3{fill:#fff;}.cls-4{fill:#76b82a;}.cls-3{fill-rule:evenodd;}</style></defs><g id="donker_groen"><path class="cls-1" d="m484.68,178.83c23.26,59.73,4.86,149.56-32.8,200.9-19.75,26.93-46.97,47.17-75.75,63.3-40.14,22.5-84.45,37.81-130.02,41.25-45.57,3.43-92.42-5.38-132.34-28.28C54.39,421.92,13.36,356.54,6.23,286.87c-2.33-22.81-1.25-45.99,3.19-68.47C25.7,136.14,88.47,67.3,164.82,38.02,241.17,8.74,338.29,1.09,402.31,53c53.18,43.12,67.6,87.93,82.36,125.83Z"/><path class="cls-4" d="m108.88,59.76c61.87-33.33,135.49-43.23,203.68-27.38,25.46,5.92,50.33,15.39,72.17,30.03,39.31,26.34,67.12,68.77,80.12,114.96,13.01,46.19,11.82,95.86.82,142.6-6.87,29.21-17.73,57.87-35.55,81.75-39.65,53.11-108.98,75.43-174.3,74.46-47.13-.7-95.28-12.56-133.14-41.29-53.05-40.25-79.69-109.26-83.39-176.72-2-36.46,1.94-73.26,11.62-108.41,9.71-35.25,26.45-68.01,56.1-88.53"/></g><g id="Iconen"><path class="cls-2" d="m202.27,453.07c-24.92-7.97-44.32-18.47-66.77-31.89-18.23-10.9-35.98-24.08-46.44-42.57-1.63-2.89-2.22-7.81,1.05-8.38,1.16-.21,2.31.36,3.33.96,8.2,4.79,14.18,12.5,20.59,19.51,24.63,26.96,57.27,45,89.29,62.56"/><path class="cls-3" d="m256.13,144.27c19.77,0,35.81,16.05,35.81,35.81s-16.05,35.81-35.81,35.81-35.81-16.05-35.81-35.81,16.05-35.81,35.81-35.81Z"/><path class="cls-3" d="m252.75,68.46c.48-1.47,1.84-2.46,3.38-2.46s2.91.99,3.38,2.46l4.25,13.08c.48,1.47,1.84,2.46,3.38,2.46h13.75c1.54,0,2.91.99,3.38,2.46.48,1.47-.05,3.07-1.29,3.98l-11.12,8.08c-1.25.91-1.77,2.51-1.29,3.98l4.25,13.08c.48,1.47-.05,3.07-1.29,3.98s-2.94.91-4.18,0l-11.12-8.08c-1.25-.91-2.94-.91-4.18,0l-11.12,8.08c-1.25.91-2.94.91-4.18,0-1.25-.91-1.77-2.51-1.29-3.98l4.25-13.08c.48-1.47-.05-3.07-1.29-3.98l-11.12-8.08c-1.25-.91-1.77-2.51-1.29-3.98.48-1.47,1.84-2.46,3.38-2.46h13.75c1.54,0,2.91-.99,3.38-2.46l4.25-13.08Z"/><path class="cls-3" d="m177.45,125.63c-2-2-2-5.24,0-7.24,2-2,5.24-2,7.24,0l14.43,14.43c2,2,2,5.24,0,7.24-2,2-5.24,2-7.24,0l-14.43-14.43Z"/><path class="cls-3" d="m158.49,163.77c-2.73-.73-4.35-3.54-3.62-6.27.73-2.73,3.54-4.35,6.27-3.62l19.71,5.28c2.73.73,4.35,3.54,3.62,6.27-.73,2.73-3.54,4.35-6.27,3.62l-19.71-5.28Z"/><path class="cls-3" d="m161.13,206.28c-2.73.73-5.54-.89-6.27-3.62s.89-5.54,3.62-6.27l19.71-5.28c2.73-.73,5.54.89,6.27,3.62.73,2.73-.89,5.54-3.62,6.27l-19.71,5.28Z"/><path class="cls-3" d="m326.59,118.4c2-2,5.24-2,7.24,0,2,2,2,5.24,0,7.24l-14.43,14.43c-2,2-5.24,2-7.24,0-2-2-2-5.24,0-7.24l14.43-14.43Z"/><path class="cls-3" d="m350.13,153.89c2.73-.73,5.54.89,6.27,3.62.73,2.73-.89,5.54-3.62,6.27l-19.71,5.28c-2.73.73-5.54-.89-6.27-3.62s.89-5.54,3.62-6.27l19.71-5.28Z"/><path class="cls-3" d="m352.78,196.4c2.73.73,4.35,3.54,3.62,6.27-.73,2.73-3.54,4.35-6.27,3.62l-19.71-5.28c-2.73-.73-4.35-3.54-3.62-6.27.73-2.73,3.54-4.35,6.27-3.62l19.71,5.28Z"/><path class="cls-3" d="m375.56,293.76l-56.77-56.77c-5.03-5.03-11.85-7.85-18.96-7.85h-87.4c-7.11,0-13.93,2.83-18.96,7.85-13.26,13.26-40.25,40.25-56.77,56.77-7.72,7.72-7.81,20.22-.19,28.05,11.6,11.94,20.98,21.74,31.62,32.37,5.88,5.88,15.42,5.88,21.31,0h0c5.88-5.88,5.88-15.42,0-21.31-7.56-7.56-11.03-11.24-20.62-21.08-2.06-2.12-2.04-5.5.05-7.58l30.19-30.19c.38-.38.95-.49,1.45-.29.5.21.82.69.82,1.23v98.03h0v8.3c0,7.49,6.07,13.56,13.56,13.56h82.49c7.49,0,13.56-6.07,13.56-13.56v-106.34c0-.54.32-1.02.82-1.23.5-.21,1.07-.09,1.45.29,6.06,6.06,22.68,22.68,30.19,30.19,2.09,2.09,2.11,5.47.05,7.58-9.59,9.83-13.06,13.51-20.62,21.08-5.88,5.88-5.88,15.42,0,21.31h0c5.88,5.88,15.42,5.88,21.31,0,10.63-10.63,20.02-20.43,31.62-32.37,7.62-7.83,7.54-20.33-.19-28.05Z"/></g></svg>