<?xml version="1.0" encoding="UTF-8"?><svg xmlns="http://www.w3.org/2000/svg" viewBox="0 0 500 500"><defs><style>.cls-1{fill:#012c17;}.cls-2{fill:#fff;}.cls-3{fill:#76b82a;}</style></defs><g id="donker_groen"><path class="cls-1" d="m484.68,178.83c23.26,59.73,4.86,149.56-32.8,200.9-19.75,26.93-46.97,47.17-75.75,63.3-40.14,22.5-84.45,37.81-130.02,41.25-45.57,3.43-92.42-5.38-132.34-28.28C54.39,421.92,13.36,356.54,6.23,286.87c-2.33-22.81-1.25-45.99,3.19-68.47C25.7,136.14,88.47,67.3,164.82,38.02,241.17,8.74,338.29,1.09,402.31,53c53.18,43.12,67.6,87.93,82.36,125.83Z"/><path class="cls-3" d="m108.88,59.76c61.87-33.33,135.49-43.23,203.68-27.38,25.46,5.92,50.33,15.39,72.17,30.03,39.31,26.34,67.12,68.77,80.12,114.96,13.01,46.19,11.82,95.86.82,142.6-6.87,29.21-17.73,57.87-35.55,81.75-39.65,53.11-108.98,75.43-174.3,74.46-47.13-.7-95.28-12.56-133.14-41.29-53.05-40.25-79.69-109.26-83.39-176.72-2-36.46,1.94-73.26,11.62-108.41,9.71-35.25,26.45-68.01,56.1-88.53"/></g><g id="Iconen"><path class="cls-2" d="m202.27,453.07c-24.92-7.97-44.32-18.47-66.77-31.89-18.23-10.9-35.98-24.08-46.44-42.57-1.63-2.89-2.22-7.81,1.05-8.38,1.16-.21,2.31.36,3.33.96,8.2,4.79,14.18,12.5,20.59,19.51,24.63,26.96,57.27,45,89.29,62.56"/><path class="cls-2" d="m383.09,147.76c-71.76,7.36-111.67-35.33-122.5-42.6-10.84,7.27-50.78,49.95-122.56,42.6-.02,0-.03.01-.03.03v92.67c0,44.78,18.74,86.22,51.42,113.69,19.62,16.41,43.56,28.85,71.17,36.96,27.58-8.12,51.5-20.55,71.11-36.97,32.67-27.46,51.41-68.9,51.41-113.69v-92.67s-.01-.03-.03-.03Zm-159.25,137.7c0,4.41-3.86,8.26-8.26,8.26h-14.32c-4.41,0-8.26-3.86-8.26-8.26v-56.18c0-4.41,3.86-8.26,8.26-8.26h14.32c4.41,0,8.26,3.86,8.26,8.26v56.18Zm100.79-49.02l-7.16,45.71c-1.1,8.81-8.81,15.42-18.17,15.42h-48.47c-3.86,0-7.71-1.65-11.01-3.86l-4.41-3.3v-68.84c9.36-5.51,14.87-15.42,14.87-25.88v-13.22c0-2.2,2.2-4.41,4.41-4.41h3.3c12.67,0,22.58,11.01,20.38,23.68-.55,4.96-1.65,9.36-3.86,13.22h31.39c13.22,0,20.93,10.46,18.73,21.48Z"/></g></svg>