<?xml version="1.0" encoding="UTF-8"?><svg xmlns="http://www.w3.org/2000/svg" viewBox="0 0 500 500"><defs><style>.cls-1{fill:#012c17;}.cls-2{fill:#fff;}.cls-3{fill:#76b82a;}</style></defs><g id="donker_groen"><path class="cls-1" d="M484.68,178.83c23.26,59.73,4.86,149.56-32.8,200.9-19.75,26.93-46.97,47.17-75.75,63.3-40.14,22.5-84.45,37.81-130.02,41.25s-92.42-5.38-132.34-28.28C54.39,421.92,13.36,356.54,6.23,286.87c-2.33-22.81-1.25-45.99,3.19-68.47C25.7,136.14,88.47,67.3,164.82,38.02,241.17,8.74,338.29,1.09,402.31,53c53.18,43.12,67.6,87.93,82.36,125.83Z"/><path class="cls-3" d="M108.88,59.76c61.87-33.33,135.49-43.23,203.68-27.38,25.46,5.92,50.33,15.39,72.17,30.03,39.31,26.34,67.12,68.77,80.12,114.96,13.01,46.19,11.82,95.86,.82,142.6-6.87,29.21-17.73,57.87-35.55,81.75-39.65,53.11-108.98,75.43-174.3,74.46-47.13-.7-95.28-12.56-133.14-41.29-53.05-40.25-79.69-109.26-83.39-176.72-2-36.46,1.94-73.26,11.62-108.41,9.71-35.25,26.45-68.01,56.1-88.53"/></g><g id="Iconen"><path class="cls-2" d="M202.27,453.07c-24.92-7.97-44.32-18.47-66.77-31.89-18.23-10.9-35.98-24.08-46.44-42.57-1.63-2.89-2.22-7.81,1.05-8.38,1.16-.21,2.31,.36,3.33,.96,8.2,4.79,14.18,12.5,20.59,19.51,24.63,26.96,57.27,45,89.29,62.56"/><g><path class="cls-2" d="M278.78,106.33c2.59,0,5.22,.25,7.84,.78,28.73,5.81,57.37,13.61,85.06,23.23,18.93,6.58,30.04,26.25,25.89,45.76-10.57,49.52-24.08,99-40.15,147-5.48,16.4-20.82,27.09-37.45,27.09-2.55,0-5.12-.25-7.7-.77-14.51-2.92-29-6.33-43.34-10.25-14.34-3.92-28.53-8.33-42.51-13.2-18.71-6.5-29.66-26.17-25.5-45.72,10.55-49.45,24.04-98.84,40.09-146.79,5.51-16.43,20.96-27.14,37.77-27.14m51.42,179.32c3.4,0,6.54-2.21,7.57-5.61,11.41-37.29,21.06-74.52,28.66-110.68,.83-3.91-1.38-7.81-5.15-9.11-26.81-9.32-54.87-16.96-81.14-22.06-.5-.1-1-.14-1.5-.14-3.36,0-6.43,2.12-7.54,5.42-11.64,34.76-22.24,71.69-31.53,109.7-1.01,4.18,1.47,8.41,5.62,9.54l82.93,22.65c.7,.19,1.4,.28,2.08,.28m-44.07,28.87c4.1,0,7.8-3.18,7.99-7.75,.16-3.73-2.46-7.01-6.06-7.99l-15.24-4.16c-.7-.19-1.41-.28-2.11-.28-4.09,0-7.8,3.18-7.99,7.75-.16,3.73,2.46,7.01,6.06,7.99l15.24,4.16c.7,.19,1.41,.28,2.11,.28"/><path class="cls-2" d="M264.51,352.02c-14.46-3.95-29.05-8.48-43.36-13.46-13.43-4.67-23.85-14.42-29.74-26.49l-4.24,1.47c-4.06,1.41-8.5-.67-10.03-4.69-13.84-36.6-25.98-73.05-36.05-108.3-1.09-3.84,.82-7.87,4.47-9.47,21.91-9.51,46.14-18.15,70.56-25.22,3.51-11.55,7.17-23.03,10.97-34.44-3.47,0-6.99,.45-10.48,1.4-28.27,7.73-56.31,17.5-83.28,28.95-18.44,7.85-28.19,28.3-22.7,47.54,13.88,48.62,30.7,96.98,49.97,143.72,7.62,18.47,27.78,28.5,46.89,23.28,14.28-3.9,28.48-8.28,42.52-13.17,7.93-2.76,15.8-5.69,23.61-8.75-3.04-.78-6.08-1.58-9.09-2.4Z"/></g></g></svg>