<?xml version="1.0" encoding="UTF-8"?><svg xmlns="http://www.w3.org/2000/svg" viewBox="0 0 500 500"><defs><style>.cls-1{fill:#012c17;}.cls-2{fill:#fff;}.cls-3{fill:#76b82a;}</style></defs><g id="donker_groen"><path class="cls-1" d="m484.68,178.83c23.26,59.73,4.86,149.56-32.8,200.9-19.75,26.93-46.97,47.17-75.75,63.3-40.14,22.5-84.45,37.81-130.02,41.25-45.57,3.43-92.42-5.38-132.34-28.28C54.39,421.92,13.36,356.54,6.23,286.87c-2.33-22.81-1.25-45.99,3.19-68.47C25.7,136.14,88.47,67.3,164.82,38.02,241.17,8.74,338.29,1.09,402.31,53c53.18,43.12,67.6,87.93,82.36,125.83Z"/><path class="cls-3" d="m108.88,59.76c61.87-33.33,135.49-43.23,203.68-27.38,25.46,5.92,50.33,15.39,72.17,30.03,39.31,26.34,67.12,68.77,80.12,114.96,13.01,46.19,11.82,95.86.82,142.6-6.87,29.21-17.73,57.87-35.55,81.75-39.65,53.11-108.98,75.43-174.3,74.46-47.13-.7-95.28-12.56-133.14-41.29-53.05-40.25-79.69-109.26-83.39-176.72-2-36.46,1.94-73.26,11.62-108.41,9.71-35.25,26.45-68.01,56.1-88.53"/></g><g id="Iconen"><path class="cls-2" d="m202.27,453.07c-24.92-7.97-44.32-18.47-66.77-31.89-18.23-10.9-35.98-24.08-46.44-42.57-1.63-2.89-2.22-7.81,1.05-8.38,1.16-.21,2.31.36,3.33.96,8.2,4.79,14.18,12.5,20.59,19.51,24.63,26.96,57.27,45,89.29,62.56"/><path class="cls-2" d="m354.87,278.15c32.22,0,58.43,26.21,58.43,58.43s-26.21,58.43-58.43,58.43-58.43-26.21-58.43-58.43,26.21-58.43,58.43-58.43m-29.49,54.79h4.15c-.06.97-.09,1.96-.09,2.98,0,.55,0,1.09.03,1.62h-4.08v5.88h4.65c.88,5.11,2.72,9.33,5.52,12.65,4.08,4.82,9.86,7.24,17.35,7.24,4.51,0,8.35-.87,11.53-2.6,3.18-1.73,5.66-4.14,7.44-7.2,1.78-3.07,2.83-6.58,3.14-10.55h-11.29c-.32,3.56-1.41,6.42-3.28,8.59-1.87,2.16-4.41,3.25-7.61,3.25-3.7,0-6.56-1.57-8.59-4.7-1.13-1.74-1.94-3.96-2.44-6.66h13.46v-5.88h-14.04c-.01-.51-.02-1.02-.02-1.56,0-1.06.03-2.07.09-3.04h13.97v-5.88h-13.13c.48-1.95,1.15-3.64,2-5.07,1.96-3.29,4.88-4.94,8.76-4.94,3.07,0,5.55,1.05,7.44,3.14,1.89,2.1,3.02,4.99,3.38,8.69h11.29c-.32-3.97-1.38-7.48-3.18-10.55-1.8-3.07-4.29-5.47-7.47-7.2-3.18-1.73-7.02-2.6-11.53-2.6-7.53,0-13.31,2.43-17.35,7.3-2.51,3.03-4.24,6.78-5.19,11.23h-4.92v5.88"/><path class="cls-2" d="m291.13,213.7c32.76,0,58.43,14.71,58.43,32.58s-25.67,31.87-58.43,31.87-59.13-14-59.13-31.87,26.37-32.58,59.13-32.58"/><path class="cls-2" d="m294.99,373.59-10.35-32.06,11.81-4.96"/><path class="cls-2" d="m232,333.23v8.65c0,17.87,26.37,31.87,59.13,31.87,1.3,0,2.58-.08,3.86-.17-4.01-6.47-7-13.64-8.75-21.28-23.06-.91-43.02-8.1-54.24-19.08Z"/><path class="cls-2" d="m286.33,320.45c-23.1-.9-43.1-8.09-54.33-19.09v8.65c0,16.65,23.07,29.79,52.64,31.51-.11-1.64-.19-3.29-.19-4.96,0-5.55.67-10.94,1.88-16.12Z"/><path class="cls-2" d="m291.13,288.77c-25.22,0-47.12-7.52-59.13-19.28v8.65c0,17.6,25.59,31.44,57.67,31.85,3.36-8.22,8.23-15.66,14.27-21.98-4.13.46-8.38.76-12.8.76Z"/><path class="cls-2" d="m297.46,201.87l-19.54-19.54v-39.88c0-7.21-5.84-13.05-13.06-13.05s-13.05,5.84-13.05,13.05v13.77l-25.7-25.7c-12.71-12.7-34.8-12.68-47.48.02l-86.32,86.32c-5.1,5.11-5.1,13.37,0,18.46,5.1,5.1,13.38,5.1,18.47,0l86.31-86.32c2.81-2.8,7.77-2.8,10.56,0l56.02,56.02c8.58-2.16,17.89-3.31,27.47-3.31,2.12,0,4.23.06,6.32.17Z"/><path class="cls-2" d="m220,240.96l.4.39c1.82-11.23,9.85-21.24,23.08-28.56,1.83-1.01,3.74-1.95,5.72-2.83l-42.29-42.28c-2.51-2.51-6.57-2.51-9.07,0l-75.92,75.9c-1.2,1.2-1.88,2.83-1.88,4.54v55.36c0,12.99,10.53,23.52,23.52,23.52h37.59v-58.21h38.85v-27.83Z"/></g></svg>